<svg width="26" height="24" viewBox="0 0 26 24" fill="none" xmlns="http://www.w3.org/2000/svg">
<g filter="url(#filter0_d_1653_153)">
<path d="M21.1826 4.49468C19.6772 3.80386 18.0642 3.2952 16.3767 3.00421C16.3458 2.99848 16.3148 3.01223 16.2999 3.04087C16.0925 3.40976 15.8623 3.89207 15.7019 4.27013C13.8872 3.99862 12.0817 3.99862 10.3037 4.27013C10.1422 3.88291 9.90385 3.40976 9.69535 3.04087C9.67931 3.01337 9.64838 2.99963 9.6186 3.00421C7.93223 3.2952 6.31804 3.80386 4.81267 4.49468C4.80007 4.50041 4.78861 4.50957 4.78059 4.52217C1.71946 9.09554 0.880835 13.5566 1.29212 17.9627C1.29441 17.9845 1.30587 18.0051 1.32305 18.0177C3.3428 19.5013 5.29957 20.4018 7.21965 20.9987C7.25058 21.0078 7.28266 20.9964 7.30213 20.9712C7.7558 20.3514 8.16136 19.6972 8.50849 19.0087C8.52911 18.9686 8.50847 18.9205 8.46723 18.9044C7.82453 18.6604 7.2139 18.3637 6.62504 18.0269C6.57807 17.9994 6.57466 17.9329 6.61704 17.9009C6.74077 17.8081 6.86449 17.7118 6.9825 17.6145C7.00426 17.5961 7.03404 17.5927 7.05924 17.6042C10.9235 19.3684 15.1073 19.3684 18.9257 17.6042C18.9509 17.5915 18.9807 17.5961 19.0025 17.6133C19.1205 17.7107 19.2442 17.8081 19.3691 17.9009C19.4115 17.9329 19.4092 17.9994 19.3622 18.0269C18.7745 18.3706 18.1627 18.6616 17.5189 18.9044C17.4765 18.9205 17.4581 18.9686 17.4788 19.0098C17.8339 19.6961 18.2383 20.3502 18.684 20.9712C18.7023 20.9975 18.7355 21.009 18.7665 20.9998C20.6957 20.4029 22.6525 19.5025 24.6722 18.0189C24.6894 18.0063 24.7008 17.9856 24.7031 17.965C25.1958 12.8715 23.8783 8.44711 21.2124 4.52446C21.2055 4.51186 21.1952 4.50155 21.1815 4.49582L21.1826 4.49468ZM9.08357 15.2797C7.91961 15.2797 6.96188 14.2119 6.96188 12.9002C6.96188 11.5884 7.90242 10.5207 9.08357 10.5207C10.2647 10.5207 11.2248 11.5987 11.2053 12.9002C11.2053 14.2119 10.2647 15.2797 9.08357 15.2797ZM16.93 15.2797C15.766 15.2797 14.8083 14.2119 14.8083 12.9002C14.8083 11.5884 15.7489 10.5207 16.93 10.5207C18.1112 10.5207 19.0712 11.5987 19.0517 12.9002C19.0517 14.2119 18.1215 15.2797 16.93 15.2797Z" fill="#F0F5F4"/>
</g>
<defs>
<filter id="filter0_d_1653_153" x="0.19458" y="3.00293" width="25.6103" height="20" filterUnits="userSpaceOnUse" color-interpolation-filters="sRGB">
<feFlood flood-opacity="0" result="BackgroundImageFix"/>
<feColorMatrix in="SourceAlpha" type="matrix" values="0 0 0 0 0 0 0 0 0 0 0 0 0 0 0 0 0 0 127 0" result="hardAlpha"/>
<feOffset dy="1"/>
<feGaussianBlur stdDeviation="0.5"/>
<feComposite in2="hardAlpha" operator="out"/>
<feColorMatrix type="matrix" values="0 0 0 0 0 0 0 0 0 0 0 0 0 0 0 0 0 0 0.3 0"/>
<feBlend mode="normal" in2="BackgroundImageFix" result="effect1_dropShadow_1653_153"/>
<feBlend mode="normal" in="SourceGraphic" in2="effect1_dropShadow_1653_153" result="shape"/>
</filter>
</defs>
</svg>
