<svg width="60" height="47" viewBox="0 0 60 47" fill="none" xmlns="http://www.w3.org/2000/svg">
<g clip-path="url(#clip0_1457_1127)">
<path fill-rule="evenodd" clip-rule="evenodd" d="M30.5097 11.8991C30.3463 11.9536 30.2102 12.008 30.1012 12.0625C29.6111 12.2259 29.1209 12.4165 28.6307 12.6344C28.4128 12.7433 28.195 12.7433 27.9771 12.6344C27.8137 12.471 27.7593 12.2804 27.8137 12.0625L28.3039 10.1835C28.7396 8.60402 28.5218 7.26964 27.6503 6.18036C26.8334 5.03661 25.6079 4.46473 23.974 4.46473H14.7423C13.1084 4.46473 11.5562 5.03661 10.0856 6.18036C8.66954 7.26964 7.74365 8.60402 7.30794 10.1835L4.93874 19.0884C4.50303 20.6679 4.69365 22.0022 5.51062 23.0915C6.38204 24.1808 7.63472 24.7254 9.26865 24.7254H11.2294C11.4472 24.7254 11.5834 24.8344 11.6378 25.0522C11.7468 25.2701 11.7195 25.4879 11.5562 25.7058C11.2294 26.0871 10.9298 26.4955 10.6575 26.9313L10.3307 27.258C8.26106 30.2536 6.65437 33.358 5.51062 36.5714C4.96597 38.2054 5.12937 39.6214 6.00079 40.8196C6.87222 41.9634 8.1249 42.5353 9.75883 42.5353H18.9905C20.57 42.5353 22.0405 42.0179 23.4021 40.983C24.7637 39.9482 25.7441 38.75 26.3432 37.3884C27.1602 35.5366 28.4401 33.9299 30.1829 32.5683L30.3463 32.4049L31.3267 31.7513C31.6535 31.5335 31.953 31.3429 32.2253 31.1795C32.4977 31.0705 32.7155 31.0705 32.8789 31.1795C33.0423 31.2884 33.0968 31.479 33.0423 31.7513L31.6535 36.8165C31.2178 38.396 31.4356 39.7576 32.307 40.9013C33.1785 41.9906 34.4311 42.5353 36.0651 42.5353H45.2151C46.849 42.5353 48.4012 41.9906 49.8718 40.9013C51.3423 39.7576 52.2682 38.396 52.6495 36.8165L55.1003 27.9116C55.4816 26.3321 55.2365 24.9978 54.3651 23.9085C53.5481 22.7647 52.3227 22.1929 50.6887 22.1929H44.153C43.7173 22.1929 43.5539 22.0022 43.6628 21.621L45.3785 15.2487C45.7597 13.6692 45.5146 12.3076 44.6432 11.1638C43.7718 10.0201 42.4374 9.52991 40.6401 9.69331C37.2633 9.91116 33.8865 10.6464 30.5097 11.8991ZM47.0941 37.5518C47.5843 37.1705 47.9111 36.7076 48.0745 36.1629L50.4436 27.258C50.607 26.7679 50.5253 26.3321 50.1986 25.9509C49.9262 25.5696 49.5178 25.379 48.9731 25.379H39.8231C39.2785 25.379 38.8428 25.1884 38.516 24.8071C38.2437 24.4259 38.1892 23.9902 38.3526 23.5L40.7218 14.5951C40.8852 14.1049 40.8035 13.6692 40.4767 13.2879C40.2044 12.9067 39.7959 12.7433 39.2512 12.7978C33.3146 13.2335 27.6776 15.2759 22.3401 18.925C22.0678 19.0884 21.7954 19.1156 21.5231 19.0067C21.3053 18.8978 21.2236 18.7071 21.278 18.4348L23.7289 9.52991C23.8378 8.98527 23.7562 8.54955 23.4838 8.22277C23.2115 7.84152 22.803 7.65089 22.2584 7.65089H13.0267C12.482 7.65089 11.9646 7.84152 11.4745 8.22277C10.9843 8.54955 10.6847 8.98527 10.5758 9.52991L8.2066 18.4348C8.0432 18.925 8.09767 19.3607 8.36999 19.742C8.64231 20.1232 9.05079 20.3138 9.59544 20.3138H18.8271C19.1539 20.3138 19.3445 20.45 19.399 20.7223C19.4535 20.9946 19.3445 21.2125 19.0722 21.3759C14.116 25.6241 10.6575 30.5531 8.69678 36.1629C8.53338 36.7076 8.58785 37.1705 8.86017 37.5518C9.13249 37.8786 9.54097 38.042 10.0856 38.042H19.3173C19.862 38.042 20.3794 37.8786 20.8695 37.5518C21.3597 37.1705 21.7137 36.7076 21.9316 36.1629C23.0753 33.4397 24.9271 31.0978 27.487 29.1371C30.1012 27.1763 32.8789 25.9781 35.82 25.5424C36.3646 25.4879 36.7731 25.6513 37.0454 26.0326C37.3722 26.3594 37.4539 26.7951 37.2905 27.3397L34.9213 36.1629C34.7579 36.7076 34.8124 37.1705 35.0847 37.5518C35.4115 37.8786 35.8472 38.042 36.3919 38.042H45.5419C46.0865 38.042 46.6039 37.8786 47.0941 37.5518Z" fill="#F0F5F4"/>
<path fill-rule="evenodd" clip-rule="evenodd" d="M24.6276 42.9438C22.7213 44.3598 20.5972 45.0679 18.2553 45.0679H9.10526C6.70883 45.0679 4.85704 44.2237 3.5499 42.5353C2.29722 40.8469 2.1066 38.7772 2.97803 36.3263C3.85094 33.8386 5.00365 31.4032 6.43617 29.0204C6.79126 28.4297 7.16355 27.8423 7.55303 27.258C6.83615 27.1612 6.1813 26.985 5.58849 26.7296C4.51488 26.2671 3.64472 25.5446 2.97803 24.5621C1.9432 22.9826 1.72535 21.158 2.32445 19.0884L4.69365 10.1835C5.29276 7.89598 6.62713 5.9625 8.69678 4.38304C10.8209 2.74911 13.0539 1.93214 15.3959 1.93214H24.6276C26.8062 1.93214 28.4945 2.64018 29.6928 4.05625C30.5077 4.94201 30.9999 5.97758 31.1694 7.16297C31.2605 7.79979 31.2585 8.47984 31.1633 9.20313C31.8281 8.97425 32.493 8.76391 33.1578 8.57211C35.8153 7.80544 38.4728 7.33498 41.1303 7.16072C43.7445 6.94286 45.678 7.67813 46.9307 9.36652C48.2378 11.0549 48.5919 13.0156 47.9928 15.2487L46.7673 19.6603H51.3423C53.7387 19.6603 55.5361 20.4772 56.7343 22.1112C57.987 23.6906 58.3137 25.6241 57.7146 27.9116L55.3454 36.8165C54.6919 39.104 53.303 41.0647 51.1789 42.6987C49.1093 44.2781 46.9035 45.0679 44.5615 45.0679H35.3298C33.2057 45.0679 31.5173 44.3871 30.2646 43.0254C29.7577 42.4524 29.3756 41.8258 29.1184 41.1456C28.7401 40.1452 28.632 39.0289 28.7941 37.7969C28.3562 38.848 27.7539 39.8286 26.9872 40.7388C26.3238 41.5265 25.5372 42.2615 24.6276 42.9438ZM27.7445 42.7779C27.1539 43.384 26.5003 43.9544 25.7869 44.4895L25.7798 44.4948C23.5454 46.1546 21.0185 47 18.2553 47H9.10526C6.19449 47 3.74339 45.9414 2.02211 43.7181L2.00999 43.7024L1.9982 43.6865C0.26947 41.3565 0.128628 38.5756 1.15619 35.6828C2.03038 33.1922 3.16811 30.7601 4.56488 28.3869C3.29042 27.7855 2.21309 26.8758 1.37922 25.647L1.37044 25.634L1.36186 25.6209C-0.023538 23.5064 -0.261391 21.0907 0.462419 18.5723L2.82455 9.69396L2.82555 9.69015C3.54513 6.9462 5.14892 4.66098 7.52163 2.84934C9.9317 0.996268 12.5688 0 15.3959 0H24.6276C27.2507 0 29.5128 0.87157 31.1417 2.77762C32.1604 3.89557 32.781 5.18624 33.0348 6.59892C35.6778 5.86553 38.3292 5.40927 40.9873 5.2338C44.0635 4.98157 46.7209 5.85342 48.4704 8.19913C50.1713 10.4056 50.5978 12.9953 49.8589 15.7493L49.8567 15.7576L49.3093 17.7281H51.3423C54.2139 17.7281 56.6393 18.7348 58.2707 20.9391C59.9499 23.0753 60.3035 25.6531 59.5837 28.4011L59.5818 28.4084L57.2081 37.3303L57.2032 37.3473C56.4219 40.0821 54.7655 42.3774 52.357 44.2301L52.3511 44.2346C49.9844 46.0408 47.3744 47 44.5615 47H35.3298C32.7533 47 30.5169 46.1533 28.8427 44.3336L28.83 44.3197L28.8175 44.3056C28.3914 43.824 28.0344 43.3136 27.7445 42.7779Z" fill="#F0F5F4"/>
</g>
<defs>
<clipPath id="clip0_1457_1127">
<rect width="60" height="47" fill="white"/>
</clipPath>
</defs>
</svg>
