<svg width="73" height="40" viewBox="0 0 73 40" fill="none" xmlns="http://www.w3.org/2000/svg">
<path fill-rule="evenodd" clip-rule="evenodd" d="M24.8 35.4383C19.7552 37.9683 14.2782 39.5869 8.72809 39.9766C6.04511 40.1651 3.65803 39.2095 2.1556 37.2815C0.686639 35.3964 0.339887 32.935 0.959939 30.6209L3.45331 21.3155C4.72084 16.5851 9.23103 13.7327 12.9366 13.2163C16.2986 12.7477 19.6318 10.1901 20.9546 7.06387C22.4125 3.61825 26.3349 0 31.2323 0L40.866 5.24993e-07C43.2608 7.87487e-07 45.5486 0.971407 46.9894 2.87775C47.0875 3.00744 47.1803 3.13979 47.268 3.27464C49.2004 1.39355 51.8642 0 54.9036 0L64.5372 5.24993e-07C66.936 7.87487e-07 69.224 0.974147 70.6633 2.88254C72.1353 4.83345 72.4386 7.38607 71.5633 9.92653C66.0106 26.0339 49.3967 38.7821 32.4011 39.9765C29.7206 40.1649 27.3335 39.2108 25.83 37.2845C25.3856 36.7152 25.0437 36.0931 24.8 35.4383ZM24.3413 32.5797C19.3738 35.1931 13.9688 36.8493 8.53523 37.2309C4.73055 37.4981 2.75601 34.5527 3.61862 31.3333L6.112 22.0279C7.03049 18.6001 10.4434 16.3429 13.3165 15.9425C17.6378 15.3402 21.7893 12.1546 23.4895 8.13647C24.6198 5.46492 27.6836 2.75247 31.2323 2.75247H40.866C43.0155 2.75247 44.7504 3.86313 45.3772 5.61994C45.577 6.18021 45.6642 6.8062 45.6161 7.4828C45.5813 7.97307 45.4755 8.48987 45.2902 9.02753C44.8574 10.2835 44.3514 11.5187 43.7784 12.7284C44.8618 11.7775 45.7953 10.6644 46.5044 9.44607C46.7515 9.02147 46.9713 8.58413 47.1608 8.1364C47.4389 7.479 47.8341 6.81913 48.3248 6.19787C49.8283 4.29418 52.2282 2.75247 54.9036 2.75247H64.5372C67.874 2.75247 70.2026 5.42705 68.9606 9.02953C63.7681 24.0933 48.1026 36.1138 32.2082 37.2308C29.5624 37.4167 27.7985 36.0481 27.262 34.112C27.0277 33.2666 27.0274 32.3129 27.2899 31.3333L27.4346 30.7935C27.2182 30.93 27.0008 31.0646 26.7824 31.1973C25.982 31.6837 25.1677 32.1449 24.3413 32.5797Z" fill="#F0F5F4"/>
<path d="M29.4752 6.05176C28.3351 6.05176 27.1865 6.94974 26.7257 8.0388C24.2924 13.7898 18.368 18.3357 12.1832 19.1977C11.012 19.3609 9.8473 20.2379 9.55223 21.3392L7.05883 30.6446C6.76377 31.7459 7.44857 32.6464 8.60737 32.5651C17.0861 31.9696 25.4928 27.8024 31.7661 21.6452C32.3232 21.0985 33.2156 21.3685 33.0347 22.0439L30.7301 30.6446C30.435 31.7459 31.1212 32.6464 32.28 32.5649C46.0959 31.5941 59.7203 21.1397 64.2339 8.04587C64.6125 6.9476 63.9202 6.05176 62.7802 6.05176H53.1465C52.0064 6.05176 50.8578 6.94967 50.397 8.03874C47.8722 14.0061 41.5888 18.6759 35.1558 19.2791C34.611 19.3303 34.4177 18.7771 34.7868 18.3199C37.3014 15.2054 39.2932 11.7293 40.5632 8.04414C40.9418 6.94594 40.249 6.05176 39.1088 6.05176H29.4752Z" fill="#F0F5F4"/>
</svg>
