<svg width="24" height="24" viewBox="0 0 24 24" fill="none" xmlns="http://www.w3.org/2000/svg">
<g filter="url(#filter0_d_1653_151)">
<path d="M1.57799 11.2052C1.62851 11.1802 1.67906 11.1565 1.72832 11.134C2.58467 10.7419 3.4524 10.3748 4.31886 10.0076C4.3656 10.0076 4.44389 9.95395 4.48809 9.93647C4.55504 9.90774 4.62199 9.88027 4.68893 9.85155C4.81777 9.79661 4.9466 9.74291 5.07417 9.68797C5.33184 9.57932 5.58822 9.47068 5.84589 9.36204L7.38809 8.70895C8.41622 8.27438 9.44564 7.83857 10.4738 7.404C11.5019 6.96944 12.5313 6.53363 13.5594 6.09906C14.5876 5.6645 15.617 5.22869 16.6451 4.79413C17.6732 4.35957 18.7026 3.92375 19.7308 3.48919C19.9594 3.39179 20.207 3.24693 20.452 3.20447C20.6579 3.16826 20.8587 3.09833 21.0658 3.05962C21.4586 2.98594 21.8919 2.95598 22.2683 3.11706C22.3984 3.17326 22.5183 3.25193 22.6181 3.35058C23.0956 3.81761 23.0286 4.58433 22.9276 5.24118C22.224 9.81908 21.5205 14.3982 20.8157 18.9761C20.7197 19.6043 20.5884 20.2936 20.0869 20.6907C19.6626 21.0266 19.0588 21.064 18.5346 20.9217C18.0105 20.7781 17.5482 20.4771 17.0948 20.1812C15.214 18.9499 13.3321 17.7186 11.4514 16.4874C11.0043 16.1952 10.5066 15.8131 10.5117 15.2823C10.5142 14.9627 10.7074 14.678 10.9045 14.4245C12.5389 12.3166 14.897 10.868 16.6514 8.85755C16.899 8.57408 17.0935 8.0621 16.7537 7.89851C16.5516 7.80111 16.3192 7.93347 16.1348 8.0596C13.8158 9.65175 11.4981 11.2451 9.17913 12.8373C8.42256 13.3568 7.62935 13.8912 6.71742 14.0186C5.90148 14.1335 5.0805 13.9087 4.29108 13.679C3.62923 13.4866 2.96863 13.2893 2.31057 13.0858C1.9607 12.9784 1.59946 12.8623 1.32917 12.6188C1.05887 12.3753 0.903537 11.9657 1.06647 11.641C1.16878 11.4375 1.36709 11.3088 1.57549 11.2039L1.57799 11.2052Z" fill="#F0F5F4"/>
</g>
<defs>
<filter id="filter0_d_1653_151" x="0" y="3" width="24" height="20" filterUnits="userSpaceOnUse" color-interpolation-filters="sRGB">
<feFlood flood-opacity="0" result="BackgroundImageFix"/>
<feColorMatrix in="SourceAlpha" type="matrix" values="0 0 0 0 0 0 0 0 0 0 0 0 0 0 0 0 0 0 127 0" result="hardAlpha"/>
<feOffset dy="1"/>
<feGaussianBlur stdDeviation="0.5"/>
<feComposite in2="hardAlpha" operator="out"/>
<feColorMatrix type="matrix" values="0 0 0 0 0 0 0 0 0 0 0 0 0 0 0 0 0 0 0.3 0"/>
<feBlend mode="normal" in2="BackgroundImageFix" result="effect1_dropShadow_1653_151"/>
<feBlend mode="normal" in="SourceGraphic" in2="effect1_dropShadow_1653_151" result="shape"/>
</filter>
</defs>
</svg>
